{
    "asset" : {
        "generator" : "Khronos glTF Blender I/O v3.3.27",
        "version" : "2.0"
    },
    "extensionsUsed" : [
        "KHR_materials_specular",
        "KHR_materials_ior"
    ],
    "scene" : 0,
    "scenes" : [
        {
            "name" : "Scene",
            "nodes" : [
                0
            ]
        }
    ],
    "nodes" : [
        {
            "mesh" : 0,
            "name" : "Plead"
        }
    ],
    "materials" : [
        {
            "doubleSided" : true,
            "extensions" : {
                "KHR_materials_specular" : {
                    "specularColorFactor" : [
                        0.538944928434855,
                        0.538944928434855,
                        0.538944928434855
                    ]
                },
                "KHR_materials_ior" : {
                    "ior" : 1.4500000476837158
                }
            },
            "name" : "EyePlead2",
            "pbrMetallicRoughness" : {
                "baseColorFactor" : [
                    0.5840784907341003,
                    0.30054354667663574,
                    0.012983128428459167,
                    1
                ],
                "metallicFactor" : 0,
                "roughnessFactor" : 0.6727272868156433
            }
        },
        {
            "doubleSided" : true,
            "extensions" : {
                "KHR_materials_specular" : {
                    "specularColorFactor" : [
                        0.8407541095599631,
                        0.8407541095599631,
                        0.8407541095599631
                    ]
                },
                "KHR_materials_ior" : {
                    "ior" : 1.4500000476837158
                }
            },
            "name" : "EyePlead",
            "pbrMetallicRoughness" : {
                "baseColorFactor" : [
                    0.14995980262756348,
                    0.07818741351366043,
                    0.0284260381013155,
                    1
                ],
                "metallicFactor" : 0,
                "roughnessFactor" : 0.6863635778427124
            }
        },
        {
            "doubleSided" : true,
            "extensions" : {
                "KHR_materials_specular" : {
                    "specularColorFactor" : [
                        0.970100835846757,
                        0.970100835846757,
                        0.970100835846757
                    ]
                },
                "KHR_materials_ior" : {
                    "ior" : 1.4500000476837158
                }
            },
            "name" : "Eyewhite",
            "pbrMetallicRoughness" : {
                "baseColorFactor" : [
                    0.800000011920929,
                    0.800000011920929,
                    0.800000011920929,
                    1
                ],
                "metallicFactor" : 0,
                "roughnessFactor" : 0.7136363983154297
            }
        },
        {
            "doubleSided" : true,
            "extensions" : {
                "KHR_materials_specular" : {
                    "specularColorFactor" : [
                        0.5497239224107037,
                        0.5497239224107037,
                        0.5497239224107037
                    ]
                },
                "KHR_materials_ior" : {
                    "ior" : 1.4500000476837158
                }
            },
            "name" : "Mouth.001",
            "pbrMetallicRoughness" : {
                "baseColorFactor" : [
                    0.061246056109666824,
                    0.03560132905840874,
                    0.010960093699395657,
                    1
                ],
                "metallicFactor" : 0,
                "roughnessFactor" : 0.8227272629737854
            }
        },
        {
            "doubleSided" : true,
            "extensions" : {
                "KHR_materials_specular" : {
                    "specularColorFactor" : [
                        0.5928394036103495,
                        0.5928394036103495,
                        0.5928394036103495
                    ]
                },
                "KHR_materials_ior" : {
                    "ior" : 1.4500000476837158
                }
            },
            "name" : "Sob",
            "pbrMetallicRoughness" : {
                "baseColorFactor" : [
                    0.7299218773841858,
                    0.47085702419281006,
                    0,
                    1
                ],
                "metallicFactor" : 0
            }
        }
    ],
    "meshes" : [
        {
            "name" : "Sphere.003",
            "primitives" : [
                {
                    "attributes" : {
                        "POSITION" : 0,
                        "NORMAL" : 1,
                        "TEXCOORD_0" : 2
                    },
                    "indices" : 3,
                    "material" : 0
                },
                {
                    "attributes" : {
                        "POSITION" : 4,
                        "NORMAL" : 5,
                        "TEXCOORD_0" : 6
                    },
                    "indices" : 7,
                    "material" : 1
                },
                {
                    "attributes" : {
                        "POSITION" : 8,
                        "NORMAL" : 9,
                        "TEXCOORD_0" : 10
                    },
                    "indices" : 11,
                    "material" : 2
                },
                {
                    "attributes" : {
                        "POSITION" : 12,
                        "NORMAL" : 13,
                        "TEXCOORD_0" : 14
                    },
                    "indices" : 15,
                    "material" : 3
                },
                {
                    "attributes" : {
                        "POSITION" : 16,
                        "NORMAL" : 17,
                        "TEXCOORD_0" : 18
                    },
                    "indices" : 19,
                    "material" : 4
                }
            ]
        }
    ],
    "accessors" : [
        {
            "bufferView" : 0,
            "componentType" : 5126,
            "count" : 4292,
            "max" : [
                0.16931460797786713,
                0.19138294458389282,
                0.11341509968042374
            ],
            "min" : [
                -0.17082814872264862,
                0.01721499115228653,
                -0.010502085089683533
            ],
            "type" : "VEC3"
        },
        {
            "bufferView" : 1,
            "componentType" : 5126,
            "count" : 4292,
            "type" : "VEC3"
        },
        {
            "bufferView" : 2,
            "componentType" : 5126,
            "count" : 4292,
            "type" : "VEC2"
        },
        {
            "bufferView" : 3,
            "componentType" : 5123,
            "count" : 23808,
            "type" : "SCALAR"
        },
        {
            "bufferView" : 4,
            "componentType" : 5126,
            "count" : 4282,
            "max" : [
                0.1524994820356369,
                0.16801588237285614,
                0.10191231220960617
            ],
            "min" : [
                -0.15508420765399933,
                -0.02860952913761139,
                -0.08995767682790756
            ],
            "type" : "VEC3"
        },
        {
            "bufferView" : 5,
            "componentType" : 5126,
            "count" : 4282,
            "type" : "VEC3"
        },
        {
            "bufferView" : 6,
            "componentType" : 5126,
            "count" : 4282,
            "type" : "VEC2"
        },
        {
            "bufferView" : 7,
            "componentType" : 5123,
            "count" : 23808,
            "type" : "SCALAR"
        },
        {
            "bufferView" : 8,
            "componentType" : 5126,
            "count" : 1215,
            "max" : [
                0.22185231745243073,
                0.2252308428287506,
                0.11687148362398148
            ],
            "min" : [
                -0.2261304259300232,
                -0.22310209274291992,
                -0.3310989439487457
            ],
            "type" : "VEC3"
        },
        {
            "bufferView" : 9,
            "componentType" : 5126,
            "count" : 1215,
            "type" : "VEC3"
        },
        {
            "bufferView" : 10,
            "componentType" : 5126,
            "count" : 1215,
            "type" : "VEC2"
        },
        {
            "bufferView" : 11,
            "componentType" : 5123,
            "count" : 5760,
            "type" : "SCALAR"
        },
        {
            "bufferView" : 12,
            "componentType" : 5126,
            "count" : 617,
            "max" : [
                0.06360644847154617,
                -0.07830413430929184,
                0.14060431718826294
            ],
            "min" : [
                -0.05244626849889755,
                -0.10983263701200485,
                0.10950781404972076
            ],
            "type" : "VEC3"
        },
        {
            "bufferView" : 13,
            "componentType" : 5126,
            "count" : 617,
            "type" : "VEC3"
        },
        {
            "bufferView" : 14,
            "componentType" : 5126,
            "count" : 617,
            "type" : "VEC2"
        },
        {
            "bufferView" : 15,
            "componentType" : 5123,
            "count" : 2292,
            "type" : "SCALAR"
        },
        {
            "bufferView" : 16,
            "componentType" : 5126,
            "count" : 3800,
            "max" : [
                0.2603457272052765,
                0.2616194188594818,
                0.1492299884557724
            ],
            "min" : [
                -0.2604181468486786,
                -0.25955143570899963,
                -0.371623158454895
            ],
            "type" : "VEC3"
        },
        {
            "bufferView" : 17,
            "componentType" : 5126,
            "count" : 3800,
            "type" : "VEC3"
        },
        {
            "bufferView" : 18,
            "componentType" : 5126,
            "count" : 3800,
            "type" : "VEC2"
        },
        {
            "bufferView" : 19,
            "componentType" : 5123,
            "count" : 19380,
            "type" : "SCALAR"
        }
    ],
    "bufferViews" : [
        {
            "buffer" : 0,
            "byteLength" : 51504,
            "byteOffset" : 0,
            "target" : 34962
        },
        {
            "buffer" : 0,
            "byteLength" : 51504,
            "byteOffset" : 51504,
            "target" : 34962
        },
        {
            "buffer" : 0,
            "byteLength" : 34336,
            "byteOffset" : 103008,
            "target" : 34962
        },
        {
            "buffer" : 0,
            "byteLength" : 47616,
            "byteOffset" : 137344,
            "target" : 34963
        },
        {
            "buffer" : 0,
            "byteLength" : 51384,
            "byteOffset" : 184960,
            "target" : 34962
        },
        {
            "buffer" : 0,
            "byteLength" : 51384,
            "byteOffset" : 236344,
            "target" : 34962
        },
        {
            "buffer" : 0,
            "byteLength" : 34256,
            "byteOffset" : 287728,
            "target" : 34962
        },
        {
            "buffer" : 0,
            "byteLength" : 47616,
            "byteOffset" : 321984,
            "target" : 34963
        },
        {
            "buffer" : 0,
            "byteLength" : 14580,
            "byteOffset" : 369600,
            "target" : 34962
        },
        {
            "buffer" : 0,
            "byteLength" : 14580,
            "byteOffset" : 384180,
            "target" : 34962
        },
        {
            "buffer" : 0,
            "byteLength" : 9720,
            "byteOffset" : 398760,
            "target" : 34962
        },
        {
            "buffer" : 0,
            "byteLength" : 11520,
            "byteOffset" : 408480,
            "target" : 34963
        },
        {
            "buffer" : 0,
            "byteLength" : 7404,
            "byteOffset" : 420000,
            "target" : 34962
        },
        {
            "buffer" : 0,
            "byteLength" : 7404,
            "byteOffset" : 427404,
            "target" : 34962
        },
        {
            "buffer" : 0,
            "byteLength" : 4936,
            "byteOffset" : 434808,
            "target" : 34962
        },
        {
            "buffer" : 0,
            "byteLength" : 4584,
            "byteOffset" : 439744,
            "target" : 34963
        },
        {
            "buffer" : 0,
            "byteLength" : 45600,
            "byteOffset" : 444328,
            "target" : 34962
        },
        {
            "buffer" : 0,
            "byteLength" : 45600,
            "byteOffset" : 489928,
            "target" : 34962
        },
        {
            "buffer" : 0,
            "byteLength" : 30400,
            "byteOffset" : 535528,
            "target" : 34962
        },
        {
            "buffer" : 0,
            "byteLength" : 38760,
            "byteOffset" : 565928,
            "target" : 34963
        }
    ],
    "buffers" : [
        {
            "byteLength" : 604688,
            "uri" : "plead.bin"
        }
    ]
}
