{
    "asset" : {
        "generator" : "Khronos glTF Blender I/O v3.3.27",
        "version" : "2.0"
    },
    "extensionsUsed" : [
        "KHR_materials_specular",
        "KHR_materials_ior"
    ],
    "scene" : 0,
    "scenes" : [
        {
            "name" : "Scene",
            "nodes" : [
                0,
                1,
                2,
                3
            ]
        }
    ],
    "nodes" : [
        {
            "mesh" : 0,
            "name" : "Brow"
        },
        {
            "mesh" : 1,
            "name" : "Body"
        },
        {
            "mesh" : 2,
            "name" : "Face"
        },
        {
            "mesh" : 3,
            "name" : "Face_Eye"
        }
    ],
    "materials" : [
        {
            "doubleSided" : true,
            "emissiveFactor" : [
                1,
                1,
                1
            ],
            "emissiveTexture" : {
                "index" : 0
            },
            "extensions" : {
                "KHR_materials_specular" : {
                    "specularColorFactor" : [
                        0,
                        0,
                        0
                    ]
                },
                "KHR_materials_ior" : {
                    "ior" : 1.4500000476837158
                }
            },
            "name" : "Avatar_Lady_Pole_Shougun_Mat_Face",
            "pbrMetallicRoughness" : {
                "baseColorTexture" : {
                    "index" : 1
                },
                "metallicFactor" : 0
            }
        },
        {
            "doubleSided" : true,
            "emissiveFactor" : [
                1,
                1,
                1
            ],
            "emissiveTexture" : {
                "index" : 2
            },
            "extensions" : {
                "KHR_materials_specular" : {
                    "specularColorFactor" : [
                        0,
                        0,
                        0
                    ]
                },
                "KHR_materials_ior" : {
                    "ior" : 1.4500000476837158
                }
            },
            "name" : "Avatar_Lady_Pole_Shougun_Mat_Hair",
            "pbrMetallicRoughness" : {
                "baseColorTexture" : {
                    "index" : 3
                },
                "metallicFactor" : 0
            }
        },
        {
            "doubleSided" : true,
            "emissiveFactor" : [
                1,
                1,
                1
            ],
            "emissiveTexture" : {
                "index" : 4
            },
            "extensions" : {
                "KHR_materials_specular" : {
                    "specularColorFactor" : [
                        0,
                        0,
                        0
                    ]
                },
                "KHR_materials_ior" : {
                    "ior" : 1.4500000476837158
                }
            },
            "name" : "Avatar_Lady_Pole_Shougun_Mat_Body",
            "pbrMetallicRoughness" : {
                "baseColorTexture" : {
                    "index" : 5
                },
                "metallicFactor" : 0
            }
        }
    ],
    "meshes" : [
        {
            "name" : "Brow.001",
            "primitives" : [
                {
                    "attributes" : {
                        "POSITION" : 0,
                        "NORMAL" : 1,
                        "TEXCOORD_0" : 2,
                        "COLOR_0" : 3
                    },
                    "indices" : 4,
                    "material" : 0
                }
            ]
        },
        {
            "name" : "Body.002",
            "primitives" : [
                {
                    "attributes" : {
                        "POSITION" : 5,
                        "NORMAL" : 6,
                        "TEXCOORD_0" : 7,
                        "COLOR_0" : 8
                    },
                    "indices" : 9,
                    "material" : 1
                },
                {
                    "attributes" : {
                        "POSITION" : 10,
                        "NORMAL" : 11,
                        "TEXCOORD_0" : 12,
                        "COLOR_0" : 13
                    },
                    "indices" : 14,
                    "material" : 2
                }
            ]
        },
        {
            "name" : "Face.001",
            "primitives" : [
                {
                    "attributes" : {
                        "POSITION" : 15,
                        "NORMAL" : 16,
                        "TEXCOORD_0" : 17,
                        "COLOR_0" : 18
                    },
                    "indices" : 19,
                    "material" : 0
                }
            ]
        },
        {
            "name" : "Face_Eye.001",
            "primitives" : [
                {
                    "attributes" : {
                        "POSITION" : 20,
                        "NORMAL" : 21,
                        "TEXCOORD_0" : 22,
                        "COLOR_0" : 23
                    },
                    "indices" : 24,
                    "material" : 0
                }
            ]
        }
    ],
    "textures" : [
        {
            "sampler" : 0,
            "source" : 0
        },
        {
            "sampler" : 0,
            "source" : 0
        },
        {
            "sampler" : 0,
            "source" : 1
        },
        {
            "sampler" : 0,
            "source" : 1
        },
        {
            "sampler" : 0,
            "source" : 2
        },
        {
            "sampler" : 0,
            "source" : 2
        }
    ],
    "images" : [
        {
            "mimeType" : "image/png",
            "name" : "Face_Diffuse",
            "uri" : "Face_Diffuse.png"
        },
        {
            "mimeType" : "image/png",
            "name" : "Hair_Diffuse",
            "uri" : "Hair_Diffuse.png"
        },
        {
            "mimeType" : "image/png",
            "name" : "body_diffuse",
            "uri" : "body_diffuse.png"
        }
    ],
    "accessors" : [
        {
            "bufferView" : 0,
            "componentType" : 5126,
            "count" : 52,
            "max" : [
                0.07800818234682083,
                1.5932810306549072,
                0.1122625470161438
            ],
            "min" : [
                -0.04982127994298935,
                1.5868537425994873,
                0.08759163320064545
            ],
            "type" : "VEC3"
        },
        {
            "bufferView" : 1,
            "componentType" : 5126,
            "count" : 52,
            "type" : "VEC3"
        },
        {
            "bufferView" : 2,
            "componentType" : 5126,
            "count" : 52,
            "type" : "VEC2"
        },
        {
            "bufferView" : 3,
            "componentType" : 5123,
            "count" : 52,
            "normalized" : true,
            "type" : "VEC4"
        },
        {
            "bufferView" : 4,
            "componentType" : 5123,
            "count" : 144,
            "type" : "SCALAR"
        },
        {
            "bufferView" : 5,
            "componentType" : 5126,
            "count" : 4297,
            "max" : [
                0.21038122475147247,
                1.748706579208374,
                0.1763954758644104
            ],
            "min" : [
                -0.24307776987552643,
                0.07467211037874222,
                -0.3465040922164917
            ],
            "type" : "VEC3"
        },
        {
            "bufferView" : 6,
            "componentType" : 5126,
            "count" : 4297,
            "type" : "VEC3"
        },
        {
            "bufferView" : 7,
            "componentType" : 5126,
            "count" : 4297,
            "type" : "VEC2"
        },
        {
            "bufferView" : 8,
            "componentType" : 5123,
            "count" : 4297,
            "normalized" : true,
            "type" : "VEC4"
        },
        {
            "bufferView" : 9,
            "componentType" : 5123,
            "count" : 17769,
            "type" : "SCALAR"
        },
        {
            "bufferView" : 10,
            "componentType" : 5126,
            "count" : 9172,
            "max" : [
                0.3671089708805084,
                1.695276141166687,
                0.167691171169281
            ],
            "min" : [
                -0.3347766399383545,
                -0.02480277419090271,
                -0.18527023494243622
            ],
            "type" : "VEC3"
        },
        {
            "bufferView" : 11,
            "componentType" : 5126,
            "count" : 9172,
            "type" : "VEC3"
        },
        {
            "bufferView" : 12,
            "componentType" : 5126,
            "count" : 9172,
            "type" : "VEC2"
        },
        {
            "bufferView" : 13,
            "componentType" : 5123,
            "count" : 9172,
            "normalized" : true,
            "type" : "VEC4"
        },
        {
            "bufferView" : 14,
            "componentType" : 5123,
            "count" : 38637,
            "type" : "SCALAR"
        },
        {
            "bufferView" : 15,
            "componentType" : 5126,
            "count" : 889,
            "max" : [
                0.0982234999537468,
                1.6961159706115723,
                0.1247619241476059
            ],
            "min" : [
                -0.07723469287157059,
                1.4730561971664429,
                -0.012136183679103851
            ],
            "type" : "VEC3"
        },
        {
            "bufferView" : 16,
            "componentType" : 5126,
            "count" : 889,
            "type" : "VEC3"
        },
        {
            "bufferView" : 17,
            "componentType" : 5126,
            "count" : 889,
            "type" : "VEC2"
        },
        {
            "bufferView" : 18,
            "componentType" : 5123,
            "count" : 889,
            "normalized" : true,
            "type" : "VEC4"
        },
        {
            "bufferView" : 19,
            "componentType" : 5123,
            "count" : 4512,
            "type" : "SCALAR"
        },
        {
            "bufferView" : 20,
            "componentType" : 5126,
            "count" : 1038,
            "max" : [
                0.09146850556135178,
                1.6201112270355225,
                0.11927966773509979
            ],
            "min" : [
                -0.06602481752634048,
                1.509740948677063,
                0.041383445262908936
            ],
            "type" : "VEC3"
        },
        {
            "bufferView" : 21,
            "componentType" : 5126,
            "count" : 1038,
            "type" : "VEC3"
        },
        {
            "bufferView" : 22,
            "componentType" : 5126,
            "count" : 1038,
            "type" : "VEC2"
        },
        {
            "bufferView" : 23,
            "componentType" : 5123,
            "count" : 1038,
            "normalized" : true,
            "type" : "VEC4"
        },
        {
            "bufferView" : 24,
            "componentType" : 5123,
            "count" : 4290,
            "type" : "SCALAR"
        }
    ],
    "bufferViews" : [
        {
            "buffer" : 0,
            "byteLength" : 624,
            "byteOffset" : 0,
            "target" : 34962
        },
        {
            "buffer" : 0,
            "byteLength" : 624,
            "byteOffset" : 624,
            "target" : 34962
        },
        {
            "buffer" : 0,
            "byteLength" : 416,
            "byteOffset" : 1248,
            "target" : 34962
        },
        {
            "buffer" : 0,
            "byteLength" : 416,
            "byteOffset" : 1664,
            "target" : 34962
        },
        {
            "buffer" : 0,
            "byteLength" : 288,
            "byteOffset" : 2080,
            "target" : 34963
        },
        {
            "buffer" : 0,
            "byteLength" : 51564,
            "byteOffset" : 2368,
            "target" : 34962
        },
        {
            "buffer" : 0,
            "byteLength" : 51564,
            "byteOffset" : 53932,
            "target" : 34962
        },
        {
            "buffer" : 0,
            "byteLength" : 34376,
            "byteOffset" : 105496,
            "target" : 34962
        },
        {
            "buffer" : 0,
            "byteLength" : 34376,
            "byteOffset" : 139872,
            "target" : 34962
        },
        {
            "buffer" : 0,
            "byteLength" : 35538,
            "byteOffset" : 174248,
            "target" : 34963
        },
        {
            "buffer" : 0,
            "byteLength" : 110064,
            "byteOffset" : 209788,
            "target" : 34962
        },
        {
            "buffer" : 0,
            "byteLength" : 110064,
            "byteOffset" : 319852,
            "target" : 34962
        },
        {
            "buffer" : 0,
            "byteLength" : 73376,
            "byteOffset" : 429916,
            "target" : 34962
        },
        {
            "buffer" : 0,
            "byteLength" : 73376,
            "byteOffset" : 503292,
            "target" : 34962
        },
        {
            "buffer" : 0,
            "byteLength" : 77274,
            "byteOffset" : 576668,
            "target" : 34963
        },
        {
            "buffer" : 0,
            "byteLength" : 10668,
            "byteOffset" : 653944,
            "target" : 34962
        },
        {
            "buffer" : 0,
            "byteLength" : 10668,
            "byteOffset" : 664612,
            "target" : 34962
        },
        {
            "buffer" : 0,
            "byteLength" : 7112,
            "byteOffset" : 675280,
            "target" : 34962
        },
        {
            "buffer" : 0,
            "byteLength" : 7112,
            "byteOffset" : 682392,
            "target" : 34962
        },
        {
            "buffer" : 0,
            "byteLength" : 9024,
            "byteOffset" : 689504,
            "target" : 34963
        },
        {
            "buffer" : 0,
            "byteLength" : 12456,
            "byteOffset" : 698528,
            "target" : 34962
        },
        {
            "buffer" : 0,
            "byteLength" : 12456,
            "byteOffset" : 710984,
            "target" : 34962
        },
        {
            "buffer" : 0,
            "byteLength" : 8304,
            "byteOffset" : 723440,
            "target" : 34962
        },
        {
            "buffer" : 0,
            "byteLength" : 8304,
            "byteOffset" : 731744,
            "target" : 34962
        },
        {
            "buffer" : 0,
            "byteLength" : 8580,
            "byteOffset" : 740048,
            "target" : 34963
        }
    ],
    "samplers" : [
        {
            "magFilter" : 9729,
            "minFilter" : 9987
        }
    ],
    "buffers" : [
        {
            "byteLength" : 748628,
            "uri" : "Raiden.bin"
        }
    ]
}
